<?xml version="1.0" encoding="iso-8859-1"?>
<!-- Generator: Adobe Illustrator 19.0.0, SVG Export Plug-In . SVG Version: 6.00 Build 0)  -->
<svg version="1.1" id="Layer_1" xmlns="http://www.w3.org/2000/svg" xmlns:xlink="http://www.w3.org/1999/xlink" x="0px" y="0px"
	 viewBox="0 0 512 512" style="enable-background:new 0 0 512 512;" xml:space="preserve">
<polygon style="fill:#004FAC;" points="478.609,55.652 478.609,55.652 478.609,22.261 33.391,22.261 33.391,55.652 33.391,55.652 
	0,55.652 0,456.348 33.391,456.348 33.391,489.739 478.609,489.739 478.609,456.348 512,456.348 512,55.652 "/>
<polygon style="fill:#FFFFFF;" points="512,155.826 0,155.826 0,456.348 33.391,456.348 33.391,489.739 478.609,489.739 
	478.609,456.348 512,456.348 "/>
<polygon points="478.609,55.652 478.609,155.826 33.391,155.826 33.391,55.652 0,55.652 0,456.348 33.391,456.348 33.391,189.217 
	478.609,189.217 478.609,456.348 512,456.348 512,55.652 "/>
<rect x="33.391" y="22.261" width="445.217" height="33.391"/>
<rect x="33.391" y="456.348" width="445.217" height="33.391"/>
<rect x="411.826" y="89.043" style="fill:#A5001E;" width="33.391" height="33.391"/>
<rect x="345.043" y="89.043" style="fill:#00CCB3;" width="33.391" height="33.391"/>
<rect x="77.913" y="233.739" width="356.174" height="33.391"/>
<rect x="77.913" y="311.652" width="178.087" height="33.391"/>
<g>
</g>
<g>
</g>
<g>
</g>
<g>
</g>
<g>
</g>
<g>
</g>
<g>
</g>
<g>
</g>
<g>
</g>
<g>
</g>
<g>
</g>
<g>
</g>
<g>
</g>
<g>
</g>
<g>
</g>
</svg>
